# xmcd
#
# Track frame offsets:
#	150
#	22259
#	39226
#	68513
#	91986
#	123985
#	143837
#	161183
#	190873
#	205816
#	231022
#
# Disc length: 3455 seconds
#
# Revision: 0
# Processed by: cddbd v1.5.2PL0 Copyright (c) Steve Scherf et al.
# Submitted via: EZCDAudioConverter 3.1.7.1
#
DISCID=910d7d0b
DTITLE=Julian Sas - Coming Home
DYEAR=2015
DGENRE=lues Rock
TTITLE0=Jump For Joy
TTITLE1=Did You Ever Wonder
TTITLE2=A Change Is Gonna Come
TTITLE3=The Road Is My Companion
TTITLE4=Fear Of Falling
TTITLE5=Coming Home
TTITLE6=End Of The Line
TTITLE7=Shame On You
TTITLE8=Stop Talking Jive
TTITLE9=Brighter Days
TTITLE10=Walking Home With Angels
EXTD=
EXTT0=
EXTT1=
EXTT2=
EXTT3=
EXTT4=
EXTT5=
EXTT6=
EXTT7=
EXTT8=
EXTT9=
EXTT10=
PLAYORDER=
